Coordinates
version=1
nRows=8
nColumns=40
inDegrees=yes

Units are S.I. units (second, meters, Newtons, ...)
Angles are in degrees.

endheader
time	pelvis_tilt	pelvis_list	pelvis_rotation	pelvis_tx	pelvis_ty	pelvis_tz	hip_flexion_r	hip_adduction_r	hip_rotation_r	knee_angle_r	knee_angle_r_beta	ankle_angle_r	subtalar_angle_r	mtp_angle_r	hip_flexion_l	hip_adduction_l	hip_rotation_l	knee_angle_l	knee_angle_l_beta	ankle_angle_l	subtalar_angle_l	mtp_angle_l	lumbar_extension	lumbar_bending	lumbar_rotation	arm_flex_r	arm_add_r	arm_rot_r	elbow_flex_r	pro_sup_r	wrist_flex_r	wrist_dev_r	arm_flex_l	arm_add_l	arm_rot_l	elbow_flex_l	pro_sup_l	wrist_flex_l	wrist_dev_l
     57.13250000	     -3.74002296	     -4.69346585	     -1.12046607	      0.85396974	      0.92186580	      0.44915002	     21.17024204	      1.41692187	    -14.69783493	     21.21041788	     21.21041788	      5.70417803	     -2.23997376	     -4.14813695	      7.98918480	    -10.20404293	     -5.81384700	     43.34667015	     43.34667015	     14.12352314	    -17.57600038	     -0.15749132	     -8.70071991	      6.36212519	      2.46055129	     -3.60524194	    -12.60286687	     -7.83093731	     27.71443264	     46.67123003	      0.00000000	      0.00000000	      8.62016040	    -10.72427917	    -14.55436453	     59.49372094	     47.09305389	      0.00000000	      0.00000000
     57.14542857	     -3.60945408	     -4.85650816	     -0.98954300	      0.85447031	      0.92293980	      0.45128630	     20.33144271	      1.70011991	    -15.00592379	     20.88470306	     20.88470306	      6.12252027	     -1.76771231	     -4.28061847	      9.70119599	    -10.85311209	     -5.62805873	     46.87253876	     46.87253876	     12.72659364	    -18.25071101	      0.24246052	     -8.97373702	      6.60414405	      2.74854082	     -1.79472555	    -12.80356976	     -7.81345520	     28.51351019	     46.64995592	      0.00000000	      0.00000000	      7.78247291	    -10.16230301	    -14.27286794	     58.63729302	     47.05182042	      0.00000000	      0.00000000
     57.15835714	     -3.69158884	     -4.94191700	     -0.68637777	      0.85466135	      0.92379992	      0.45286030	     19.63806351	      1.73301997	    -15.95574212	     20.41772359	     20.41772359	      6.45683242	     -0.41045259	     -4.56726821	     11.92606565	    -11.18859403	     -4.94153388	     50.56646777	     50.56646777	     13.15471558	    -18.46556957	      5.35927433	     -8.86647049	      6.85654477	      2.23860274	      0.11277263	    -13.02826179	     -7.40443994	     29.72914010	     46.56700448	      0.00000000	      0.00000000	      7.22289130	    -10.03656373	    -13.88038622	     55.06683154	     46.97069374	      0.00000000	      0.00000000
     57.17128571	     -3.77671383	     -5.15553043	     -0.53249111	      0.85462629	      0.92441320	      0.45467754	     18.98511098	      2.09396169	    -16.23279218	     19.89981217	     19.89981217	      6.72635892	      0.00088500	     -4.59706595	     13.96012345	    -11.85545783	     -4.74439767	     53.61731359	     53.61731359	     12.36518475	    -18.69902925	      6.35398847	     -8.89508440	      7.17187891	      2.68826267	      1.74962378	    -13.35264242	     -7.38463022	     30.45994010	     46.54526104	      0.00000000	      0.00000000	      6.44172507	     -9.42657983	    -13.56863087	     54.10835887	     46.92459042	      0.00000000	      0.00000000
     57.18421429	     -3.84191263	     -5.38790356	     -0.34622094	      0.85441679	      0.92505791	      0.45635074	     18.31816837	      2.44253189	    -16.70355314	     19.38843645	     19.38843645	      6.93165506	      0.51212897	     -4.65581352	     15.93147084	    -12.47882817	     -4.48618422	     56.21990852	     56.21990852	     11.99075361	    -18.87363084	      7.87182345	     -8.92617284	      7.51181347	      2.74768447	      3.71271329	    -13.64462830	     -7.38377742	     31.37167137	     46.51943212	      0.00000000	      0.00000000	      5.59313587	     -9.08266178	    -13.17610697	     52.57459578	     46.86405009	      0.00000000	      0.00000000
     57.19714286	     -3.86657938	     -5.28061675	     -0.23826629	      0.85400334	      0.92587973	      0.45764328	     17.67183612	      2.38600093	    -17.08166449	     18.97693169	     18.97693169	      7.16072132	      1.32571561	     -4.99328139	     17.89323693	    -12.45164978	     -4.04141975	     58.57223090	     58.57223090	     13.63300445	    -18.87018200	     14.59246365	     -8.97277763	      7.49525020	      3.23884624	      5.55853356	    -14.03247911	     -6.99841932	     32.10300938	     46.45429488	      0.00000000	      0.00000000	      5.83380707	     -8.77153680	    -12.03696237	     48.82066232	     46.71806074	      0.00000000	      0.00000000
     57.21007143	     -3.93349407	     -5.40501494	     -0.10681061	      0.85341799	      0.92650336	      0.45909675	     17.04766204	      2.67138032	    -17.23769021	     18.45704435	     18.45704435	      7.35306382	      1.57777517	     -4.98547547	     19.65328824	    -12.86794454	     -3.88230338	     60.01663603	     60.01663603	     13.29765074	    -18.98105250	     14.92506392	     -9.06789501	      7.69027880	      3.44416460	      7.51915679	    -14.32220395	     -7.08199548	     33.02762303	     46.43325077	      0.00000000	      0.00000000	      4.89197869	     -8.43947507	    -11.69124219	     47.91480261	     46.66538665	      0.00000000	      0.00000000
     57.22300000	     -3.95949006	     -5.40774806	      0.02780508	      0.85271922	      0.92727142	      0.46034654	     16.36190140	      2.82282701	    -17.39217968	     17.88418773	     17.88418773	      7.50236996	      1.88312965	     -5.05192725	     21.25408899	    -13.04341192	     -3.69453757	     60.87533353	     60.87533353	     13.34036452	    -19.05541673	     15.74607703	     -9.19828244	      7.73094128	      3.40215292	      9.74863915	    -14.47697711	     -7.09406928	     33.97199066	     46.40489868	      0.00000000	      0.00000000	      4.06248799	     -8.30338419	    -11.08639636	     46.35232620	     46.58211406	      0.00000000	      0.00000000
